<?xml version="1.0" encoding="UTF-8"?>
<svg xmlns="http://www.w3.org/2000/svg" xmlns:xlink="http://www.w3.org/1999/xlink" width="20pt" height="20pt" viewBox="0 0 20 20" version="1.1">
<g id="surface1">
<path style=" stroke:none;fill-rule:nonzero;fill:rgb(0%,0%,0%);fill-opacity:1;" d="M 3.285156 18.902344 C 4.019531 18.222656 4.988281 17.863281 5.988281 17.898438 C 6.375 17.898438 6.761719 17.941406 7.136719 18.019531 C 7.535156 18.339844 8.113281 18.308594 8.472656 17.949219 L 8.945312 17.476562 L 19.777344 4.957031 C 20.097656 4.558594 20.070312 3.984375 19.707031 3.621094 L 16.59375 0.445312 C 16.222656 0.0742188 15.625 0.0507812 15.226562 0.394531 L 2.863281 11.300781 L 2.8125 11.347656 L 2.78125 11.378906 L 2.335938 11.816406 C 1.976562 12.179688 1.945312 12.753906 2.265625 13.152344 C 2.359375 13.5625 2.742188 15.65625 1.394531 17.003906 C 1.296875 17.105469 1.277344 17.253906 1.335938 17.378906 L 0.0976562 18.609375 C -0.03125 18.742188 -0.03125 18.953125 0.0976562 19.082031 C 0.125 19.109375 0.152344 19.128906 0.183594 19.144531 L 1.519531 19.8125 C 1.566406 19.835938 1.617188 19.847656 1.667969 19.847656 L 12.351562 19.847656 C 12.539062 19.847656 12.6875 19.699219 12.6875 19.515625 C 12.6875 19.332031 12.539062 19.179688 12.351562 19.179688 L 2.621094 19.179688 L 2.894531 18.960938 C 3.023438 19.027344 3.183594 19.003906 3.285156 18.902344 Z M 2.089844 17.230469 C 3.574219 15.472656 2.929688 13.019531 2.898438 12.910156 C 2.882812 12.855469 2.855469 12.804688 2.816406 12.765625 C 2.753906 12.703125 2.71875 12.613281 2.71875 12.523438 C 2.71875 12.4375 2.753906 12.351562 2.816406 12.289062 L 3.046875 12.054688 L 8.238281 17.246094 L 8.003906 17.480469 C 7.871094 17.609375 7.664062 17.609375 7.53125 17.480469 C 7.488281 17.4375 7.4375 17.410156 7.382812 17.390625 C 6.921875 17.285156 6.453125 17.230469 5.984375 17.230469 C 4.925781 17.195312 3.886719 17.539062 3.058594 18.199219 Z M 2.089844 17.230469 "/>
</g>
</svg>
